<svg xmlns="http://www.w3.org/2000/svg" width="33.118" height="33.118" viewBox="0 0 33.118 33.118"><defs><style>.a{fill:none;stroke:#002e5f;stroke-linecap:round;stroke-linejoin:round;stroke-width:3px;}</style></defs><g transform="translate(0.621 0.621)"><path class="a" d="M23.734,24.3a13.217,13.217,0,0,1-7.8,2.7C6.75,27,1.5,16.5,1.5,16.5A24.216,24.216,0,0,1,8.141,8.7m5.04-2.389A11.97,11.97,0,0,1,15.938,6c9.188,0,14.438,10.5,14.438,10.5a24.281,24.281,0,0,1-2.835,4.187m-8.82-1.4a3.937,3.937,0,1,1-5.565-5.565" transform="translate(0 -0.562)"/><path class="a" d="M1.5,1.5,30.375,30.375"/></g></svg>