<svg xmlns="http://www.w3.org/2000/svg" width="165.688" height="63" viewBox="0 0 165.688 63"><defs><style>.a{fill:#002e5f;}</style></defs><g transform="translate(-1.5 -1.1)"><g transform="translate(1.795 1.1)"><path class="a" d="M1.9,34.223H13.851V1.1H1.9Z" transform="translate(-1.9 -1.1)"/><path class="a" d="M165.2,34.223H177V1.1H165.2Z" transform="translate(-44.733 -1.1)"/><path class="a" d="M196.4,34.223h21.762v-10.7h-9.811V1.1H196.4Z" transform="translate(-52.916 -1.1)"/><path class="a" d="M46.587,17.329,56.62,34.223H67.98V1.1H56.62V18.215L46.734,1.1H35.3V34.223H46.587Z" transform="translate(-10.661 -1.1)"/><g transform="translate(67.278 0)"><path class="a" d="M114.051,1.1H103.87S93.1,8.4,93.1,20.87c0,0-.221,14.016,14.164,14.016A21.718,21.718,0,0,0,121.723,29.5s-13.8,3.246-13.8-6.492c0,0-1.254-7.3,8.779-11.8Z" transform="translate(-93.1 -1.1)"/><path class="a" d="M132.051,27.289,124.6,1.1h11.656l9.664,33.566c-.074,0-11.213,1.77-13.869-7.377Z" transform="translate(-101.362 -1.1)"/></g></g><g transform="translate(1.5 50.526)"><path class="a" d="M1.9,73.733V68.2h.664v5.533Z" transform="translate(-1.605 -68.126)"/><path class="a" d="M7.993,72.257a1.6,1.6,0,0,1-.516,1.18,2.1,2.1,0,0,1-1.4.369,2.6,2.6,0,0,1-1.475-.3v-.59a2.615,2.615,0,0,0,.811.221,3.026,3.026,0,0,0,.811.074A1.674,1.674,0,0,0,7.182,73a.8.8,0,0,0,.3-.664,1.094,1.094,0,0,0-.074-.516,1.609,1.609,0,0,0-.369-.3c-.148-.074-.516-.221-.811-.369a2.582,2.582,0,0,1-1.107-.664,2.042,2.042,0,0,1-.221-.959,1.151,1.151,0,0,1,.516-.959A1.813,1.813,0,0,1,6.666,68.2a2.926,2.926,0,0,1,1.475.3l-.369.59a3.042,3.042,0,0,0-1.254-.3,1.487,1.487,0,0,0-.811.221c-.221.074-.3.369-.3.59a1.094,1.094,0,0,0,.074.516,1.609,1.609,0,0,0,.369.3,2.343,2.343,0,0,0,.811.3,1.642,1.642,0,0,1,1.18.59A4.318,4.318,0,0,1,7.993,72.257Z" transform="translate(-2.313 -68.126)"/><path class="a" d="M12.761,73.733H12.1V68.79H10.4V68.2h4.131v.59h-1.77Z" transform="translate(-3.834 -68.126)"/><path class="a" d="M17.4,73.733V68.2h.664v5.533Z" transform="translate(-5.67 -68.126)"/><path class="a" d="M22.161,73.733h-.59V68.79H19.8V68.2h4.131v.59h-1.77Z" transform="translate(-6.3 -68.126)"/><path class="a" d="M30.979,68.274v3.541a1.915,1.915,0,0,1-2.139,1.992,2.113,2.113,0,0,1-1.549-.59,2.06,2.06,0,0,1-.59-1.475V68.2h.664v3.615a1.355,1.355,0,0,0,.369,1.107,1.66,1.66,0,0,0,1.107.369,1.3,1.3,0,0,0,1.475-1.475V68.274Z" transform="translate(-8.11 -68.126)"/><path class="a" d="M36.234,73.733H35.57V68.79H33.8V68.2H38v.59h-1.77Z" transform="translate(-9.972 -68.126)"/><path class="a" d="M45.416,70.977a3.022,3.022,0,0,1-.664,2.066,2.514,2.514,0,0,1-1.844.811,2.29,2.29,0,0,1-1.844-.811,3.447,3.447,0,0,1-.664-2.066,3.022,3.022,0,0,1,.664-2.066,2.29,2.29,0,0,1,1.844-.811,2.4,2.4,0,0,1,1.844.811A3.022,3.022,0,0,1,45.416,70.977Zm-4.352,0a2.731,2.731,0,0,0,.516,1.7,1.96,1.96,0,0,0,2.8,0,3.046,3.046,0,0,0,0-3.393,1.96,1.96,0,0,0-2.8,0A2.238,2.238,0,0,0,41.064,70.977Z" transform="translate(-11.703 -68.1)"/><path class="a" d="M56.7,73.733h-.664l-3.025-4.648h0c0,.59.074,1.107.074,1.475v3.172H52.5V68.2h.664l2.951,4.648h0V68.2h.59Z" transform="translate(-14.877 -68.126)"/><path class="a" d="M63.831,73.733l-.664-1.77H61.028l-.664,1.77H59.7L61.839,68.2h.516l2.287,5.533Zm-.885-2.213-.664-1.7c-.074-.221-.221-.516-.3-.811a4.536,4.536,0,0,1-.221.811l-.664,1.7Z" transform="translate(-16.766 -68.126)"/><path class="a" d="M71.162,73.733H67.4v-.516l2.951-4.426H67.474V68.2h3.615v.516l-2.951,4.426h3.025v.59Z" transform="translate(-18.785 -68.126)"/><path class="a" d="M74.1,73.733V68.2h.664v5.533Z" transform="translate(-20.543 -68.126)"/><path class="a" d="M81.916,70.977a3.022,3.022,0,0,1-.664,2.066,2.514,2.514,0,0,1-1.844.811,2.29,2.29,0,0,1-1.844-.811,3.447,3.447,0,0,1-.664-2.066,3.022,3.022,0,0,1,.664-2.066,2.5,2.5,0,0,1,3.689,0A3.022,3.022,0,0,1,81.916,70.977Zm-4.279,0a2.731,2.731,0,0,0,.516,1.7,1.96,1.96,0,0,0,2.8,0,3.046,3.046,0,0,0,0-3.393,1.96,1.96,0,0,0-2.8,0A2.238,2.238,0,0,0,77.638,70.977Z" transform="translate(-21.277 -68.1)"/><path class="a" d="M90,73.733h-.664l-3.025-4.648h0c0,.59.074,1.107.074,1.475v3.172H85.8V68.2h.664l2.951,4.648h0V68.2H90Z" transform="translate(-23.611 -68.126)"/><path class="a" d="M97.157,73.733l-.664-1.77H94.354l-.664,1.77H93.1L95.239,68.2h.516L97.9,73.733Zm-.885-2.213-.664-1.7c-.074-.221-.221-.516-.3-.811a4.537,4.537,0,0,1-.221.811l-.664,1.7Z" transform="translate(-25.526 -68.126)"/><path class="a" d="M101,73.733V68.2h.664v4.943H104.1v.59Z" transform="translate(-27.598 -68.126)"/><path class="a" d="M109.625,73.733H106.6V68.2h3.025v.59H107.19v1.77h2.287v.59H107.19v2.066h2.434Z" transform="translate(-29.067 -68.126)"/><path class="a" d="M119.415,69.9a1.476,1.476,0,0,1-.59,1.254,2.578,2.578,0,0,1-1.7.516h-.664v2.066H115.8V68.2h1.475C118.751,68.274,119.415,68.864,119.415,69.9Zm-2.877,1.18h.59a1.973,1.973,0,0,0,1.254-.3.993.993,0,0,0,.369-.885.865.865,0,0,0-.369-.811,1.531,1.531,0,0,0-1.107-.3h-.59v2.287Z" transform="translate(-31.48 -68.126)"/><path class="a" d="M125.472,73.733H122.3V68.2h3.025v.59H122.89v1.77h2.361v.59h-2.287v2.066H125.4v.516Z" transform="translate(-33.185 -68.126)"/><path class="a" d="M128.864,71.546v2.287H128.2V68.3h1.549a2.084,2.084,0,0,1,1.475.369,1.6,1.6,0,0,1,.516,1.18,1.545,1.545,0,0,1-1.107,1.475l1.475,2.434H131.3l-1.4-2.287C129.97,71.546,128.864,71.546,128.864,71.546Zm0-.59h.885c.516,0,.811-.074.959-.3a1.109,1.109,0,0,0,.3-.811,1.008,1.008,0,0,0-.3-.811,2.617,2.617,0,0,0-.959-.221h-.811v2.066h-.074Z" transform="translate(-34.733 -68.152)"/><path class="a" d="M138.3,73.733V68.2h.664v4.943H141.4v.59Z" transform="translate(-37.382 -68.126)"/><path class="a" d="M143.107,68.3h0a2.547,2.547,0,0,1-.221.959c-.074.3-.3.664-.369.885H142a11.551,11.551,0,0,0,.369-1.844Z" transform="translate(-38.352 -68.152)"/><path class="a" d="M147.731,73.733l-.664-1.77h-2.139l-.664,1.77H143.6l2.139-5.533h.516l2.139,5.533Zm-.885-2.213-.664-1.7c-.074-.221-.221-.516-.3-.811a4.535,4.535,0,0,1-.221.811L145,71.52Z" transform="translate(-38.772 -68.126)"/><path class="a" d="M154.767,72.257a1.6,1.6,0,0,1-.516,1.18,2.2,2.2,0,0,1-1.475.369,2.6,2.6,0,0,1-1.475-.3v-.59a3.474,3.474,0,0,0,.664.221,3.026,3.026,0,0,0,.811.074,1.674,1.674,0,0,0,.959-.221.8.8,0,0,0,.3-.664,1.094,1.094,0,0,0-.074-.516.736.736,0,0,0-.369-.3,7.189,7.189,0,0,1-.811-.369,2.582,2.582,0,0,1-1.107-.664,1.483,1.483,0,0,1-.3-.959,1.151,1.151,0,0,1,.516-.959,1.813,1.813,0,0,1,1.254-.369,2.926,2.926,0,0,1,1.475.3l-.221.59a3.042,3.042,0,0,0-1.254-.3,1.487,1.487,0,0,0-.811.221c-.221.074-.3.369-.3.59a1.094,1.094,0,0,0,.074.516.736.736,0,0,0,.369.3,3.194,3.194,0,0,0,.811.3,2.48,2.48,0,0,1,1.18.664A1.807,1.807,0,0,1,154.767,72.257Z" transform="translate(-40.792 -68.126)"/><path class="a" d="M160.767,72.257a1.6,1.6,0,0,1-.516,1.18,2.2,2.2,0,0,1-1.475.369,2.6,2.6,0,0,1-1.475-.3v-.59a3.474,3.474,0,0,0,.664.221,3.026,3.026,0,0,0,.811.074,1.674,1.674,0,0,0,.959-.221.8.8,0,0,0,.3-.664,1.094,1.094,0,0,0-.074-.516.736.736,0,0,0-.369-.3,7.189,7.189,0,0,1-.811-.369,2.582,2.582,0,0,1-1.107-.664,1.483,1.483,0,0,1-.3-.959,1.151,1.151,0,0,1,.516-.959,1.813,1.813,0,0,1,1.254-.369,2.926,2.926,0,0,1,1.475.3l-.221.59a3.042,3.042,0,0,0-1.254-.3,1.487,1.487,0,0,0-.811.221c-.221.074-.3.369-.3.59a1.094,1.094,0,0,0,.074.516.737.737,0,0,0,.369.3,3.193,3.193,0,0,0,.811.3,2.48,2.48,0,0,1,1.18.664A1.807,1.807,0,0,1,160.767,72.257Z" transform="translate(-42.366 -68.126)"/><path class="a" d="M163.7,73.733V68.2h.664v5.533Z" transform="translate(-44.044 -68.126)"/><path class="a" d="M169.056,68.716a2.06,2.06,0,0,0-1.475.59,2.342,2.342,0,0,0-.516,1.7,3.081,3.081,0,0,0,.516,1.7,1.831,1.831,0,0,0,1.475.59,4.092,4.092,0,0,0,1.254-.221v.59a6.983,6.983,0,0,1-1.4.221,2.012,2.012,0,0,1-1.844-.811A3.447,3.447,0,0,1,166.4,71a2.926,2.926,0,0,1,.3-1.475,2.242,2.242,0,0,1,.885-.959,2.825,2.825,0,0,1,1.4-.369,2.926,2.926,0,0,1,1.475.3l-.3.59A1.812,1.812,0,0,0,169.056,68.716Z" transform="translate(-44.752 -68.126)"/><path class="a" d="M177.779,68.274v3.541a1.915,1.915,0,0,1-2.139,1.992,2.113,2.113,0,0,1-1.549-.59,2.06,2.06,0,0,1-.59-1.475V68.2h.664v3.615a1.355,1.355,0,0,0,.369,1.107,1.66,1.66,0,0,0,1.107.369,1.3,1.3,0,0,0,1.475-1.475V68.274Z" transform="translate(-46.615 -68.126)"/><path class="a" d="M182.164,71.546v2.287H181.5V68.3h1.475a2.084,2.084,0,0,1,1.475.369,1.6,1.6,0,0,1,.516,1.18,1.545,1.545,0,0,1-1.107,1.475l1.475,2.434h-.811l-1.4-2.287A4.206,4.206,0,0,1,182.164,71.546Zm0-.59h.885c.516,0,.811-.074.959-.3a1.109,1.109,0,0,0,.3-.811,1.008,1.008,0,0,0-.3-.811c-.221-.221-.59-.221-1.107-.221h-.811v2.139Z" transform="translate(-48.713 -68.152)"/><path class="a" d="M192.031,73.733l-.664-1.77h-2.139l-.664,1.77H187.9l2.139-5.533h.516l2.287,5.533Zm-.885-2.213-.664-1.7c-.074-.221-.221-.516-.3-.811a4.537,4.537,0,0,1-.221.811l-.664,1.7Z" transform="translate(-50.392 -68.126)"/><path class="a" d="M199.362,73.733H195.6v-.516l2.951-4.426h-2.877V68.2h3.615v.516l-2.951,4.426h3.025v.59Z" transform="translate(-52.412 -68.126)"/><path class="a" d="M202.3,73.733V68.2h.664v5.533Z" transform="translate(-54.169 -68.126)"/><path class="a" d="M210.116,70.977a3.022,3.022,0,0,1-.664,2.066,2.514,2.514,0,0,1-1.844.811,2.191,2.191,0,0,1-1.844-.811,3.447,3.447,0,0,1-.664-2.066,3.022,3.022,0,0,1,.664-2.066,2.29,2.29,0,0,1,1.844-.811,2.4,2.4,0,0,1,1.844.811A3.022,3.022,0,0,1,210.116,70.977Zm-4.426,0a2.731,2.731,0,0,0,.516,1.7,1.96,1.96,0,0,0,2.8,0,3.046,3.046,0,0,0,0-3.393,1.96,1.96,0,0,0-2.8,0A3.081,3.081,0,0,0,205.69,70.977Z" transform="translate(-54.903 -68.1)"/><path class="a" d="M218.1,73.733h-.664l-3.025-4.648h0c0,.59.074,1.107.074,1.475v3.172h-.59V68.2h.664l2.951,4.648h0V68.2h.59Z" transform="translate(-57.212 -68.126)"/><path class="a" d="M225.025,73.733H222V68.2h3.025v.59H222.59v1.77h2.287v.59H222.59v2.066h2.434Z" transform="translate(-59.336 -68.126)"/><path class="a" d="M4.156,79.316a2.06,2.06,0,0,0-1.475.59,2.342,2.342,0,0,0-.516,1.7,3.081,3.081,0,0,0,.516,1.7,1.831,1.831,0,0,0,1.475.59,4.092,4.092,0,0,0,1.254-.221v.59a6.983,6.983,0,0,1-1.4.221,2.012,2.012,0,0,1-1.844-.811A3.447,3.447,0,0,1,1.5,81.6a2.926,2.926,0,0,1,.3-1.475,2.242,2.242,0,0,1,.885-.959,2.825,2.825,0,0,1,1.4-.369,2.926,2.926,0,0,1,1.475.3l-.3.59A1.269,1.269,0,0,0,4.156,79.316Z" transform="translate(-1.5 -70.907)"/><path class="a" d="M13.116,81.477a3.022,3.022,0,0,1-.664,2.066,2.514,2.514,0,0,1-1.844.811,2.29,2.29,0,0,1-1.844-.811A3.447,3.447,0,0,1,8.1,81.477a3.022,3.022,0,0,1,.664-2.066,2.29,2.29,0,0,1,1.844-.811,2.4,2.4,0,0,1,1.844.811A3.022,3.022,0,0,1,13.116,81.477Zm-4.352,0a2.731,2.731,0,0,0,.516,1.7,1.775,1.775,0,0,0,1.4.59,1.775,1.775,0,0,0,1.4-.59,3.046,3.046,0,0,0,0-3.393,1.775,1.775,0,0,0-1.4-.59,1.775,1.775,0,0,0-1.4.59A2.342,2.342,0,0,0,8.764,81.477Z" transform="translate(-3.231 -70.854)"/><path class="a" d="M21.079,84.333h-.664l-3.1-4.648h0c0,.59.074,1.107.074,1.475v3.172H16.8V78.8h.664l2.951,4.648h0V78.8H21v5.533Z" transform="translate(-5.513 -70.907)"/><path class="a" d="M26.434,84.333H25.77V79.39H24V78.8h4.131v.59h-1.77v4.943Z" transform="translate(-7.402 -70.907)"/><path class="a" d="M31.664,81.946v2.287H31V78.7h1.475a2.084,2.084,0,0,1,1.475.369,1.6,1.6,0,0,1,.516,1.18,1.545,1.545,0,0,1-1.107,1.475l1.475,2.434h-.811l-1.4-2.287C32.7,81.946,31.664,81.946,31.664,81.946Zm0-.516h.885c.516,0,.811-.074.959-.3a1.109,1.109,0,0,0,.3-.811,1.008,1.008,0,0,0-.3-.811c-.221-.221-.59-.221-1.107-.221H31.59V81.43Z" transform="translate(-9.238 -70.88)"/><path class="a" d="M42.416,81.477a3.022,3.022,0,0,1-.664,2.066,2.514,2.514,0,0,1-1.844.811,2.191,2.191,0,0,1-1.844-.811,3.447,3.447,0,0,1-.664-2.066,3.022,3.022,0,0,1,.664-2.066,2.5,2.5,0,0,1,3.689,0A2.7,2.7,0,0,1,42.416,81.477Zm-4.352,0a2.731,2.731,0,0,0,.516,1.7,1.96,1.96,0,0,0,2.8,0,3.046,3.046,0,0,0,0-3.393,1.96,1.96,0,0,0-2.8,0A2.342,2.342,0,0,0,38.064,81.477Z" transform="translate(-10.916 -70.854)"/><path class="a" d="M51.8,81.356h1.844v2.656a3.891,3.891,0,0,1-.885.221c-.3,0-.664.074-1.107.074A2.555,2.555,0,0,1,49,81.43a2.321,2.321,0,0,1,.369-1.475A2.4,2.4,0,0,1,50.328,79a3.107,3.107,0,0,1,1.475-.3,4.328,4.328,0,0,1,1.7.3l-.3.59a3.516,3.516,0,0,0-1.475-.3,2.113,2.113,0,0,0-1.549.59,2.734,2.734,0,0,0,0,3.393,2.113,2.113,0,0,0,1.549.59,5.225,5.225,0,0,0,1.107-.074v-1.7H51.582V81.43H51.8Z" transform="translate(-13.959 -70.88)"/><path class="a" d="M57.4,84.333V78.8h.59v4.943h2.434v.59Z" transform="translate(-16.162 -70.907)"/><path class="a" d="M63,84.333V78.8h.738v5.533Z" transform="translate(-17.631 -70.907)"/><path class="a" d="M69.6,84.333V78.8h.664v5.533Z" transform="translate(-19.362 -70.907)"/><path class="a" d="M77,84.333h-.664l-3.025-4.648h0c0,.59.074,1.107.074,1.475v3.172H72.8V78.8h.664l2.951,4.648h0V78.8H77Z" transform="translate(-20.202 -70.907)"/><path class="a" d="M81.364,84.333H80.7V78.8h3.172v.59H81.438v1.992h2.287v.59H81.438v2.361Z" transform="translate(-22.274 -70.907)"/><path class="a" d="M91.116,81.477a3.022,3.022,0,0,1-.664,2.066,2.514,2.514,0,0,1-1.844.811,2.191,2.191,0,0,1-1.844-.811,3.447,3.447,0,0,1-.664-2.066,3.022,3.022,0,0,1,.664-2.066,2.5,2.5,0,0,1,3.689,0A2.7,2.7,0,0,1,91.116,81.477Zm-4.279,0a2.731,2.731,0,0,0,.516,1.7,1.96,1.96,0,0,0,2.8,0,3.046,3.046,0,0,0,0-3.393,1.96,1.96,0,0,0-2.8,0A2.059,2.059,0,0,0,86.838,81.477Z" transform="translate(-23.69 -70.854)"/><path class="a" d="M95.564,81.946v2.287H94.9V78.7h1.549a2.084,2.084,0,0,1,1.475.369,1.6,1.6,0,0,1,.516,1.18,1.545,1.545,0,0,1-1.107,1.475l1.475,2.434H98l-1.4-2.287A4.871,4.871,0,0,1,95.564,81.946Zm0-.516h.885c.516,0,.811-.074.959-.3a1.547,1.547,0,0,0,.3-.811,1.008,1.008,0,0,0-.3-.811c-.221-.221-.59-.221-1.107-.221H95.49V81.43Z" transform="translate(-25.998 -70.88)"/><path class="a" d="M103.134,84.333h-.664V79.39H100.7V78.8h4.131v.59h-1.77v4.943Z" transform="translate(-27.52 -70.907)"/><path class="a" d="M111.979,78.774v3.541a1.915,1.915,0,0,1-2.139,1.992,2.113,2.113,0,0,1-1.549-.59,2.06,2.06,0,0,1-.59-1.475V78.7h.664v3.615a1.355,1.355,0,0,0,.369,1.107,1.66,1.66,0,0,0,1.107.369,1.3,1.3,0,0,0,1.475-1.475V78.774Z" transform="translate(-29.356 -70.88)"/><path class="a" d="M119.979,84.333h-.664l-3.025-4.648h0c0,.59.074,1.107.074,1.475v3.172H115.7V78.8h.664l2.951,4.648h0V78.8h.59v5.533Z" transform="translate(-31.454 -70.907)"/><path class="a" d="M123.7,84.333V78.8h.664v5.533Z" transform="translate(-33.552 -70.907)"/><path class="a" d="M133.267,82.857a1.6,1.6,0,0,1-.516,1.18,2.2,2.2,0,0,1-1.475.369,2.6,2.6,0,0,1-1.475-.3v-.59a3.473,3.473,0,0,0,.664.221,3.026,3.026,0,0,0,.811.074,1.674,1.674,0,0,0,.959-.221.8.8,0,0,0,.3-.664,1.094,1.094,0,0,0-.074-.516.736.736,0,0,0-.369-.3,7.19,7.19,0,0,1-.811-.369,2.582,2.582,0,0,1-1.107-.664,1.483,1.483,0,0,1-.3-.959,1.151,1.151,0,0,1,.516-.959,2.286,2.286,0,0,1,1.254-.369,2.926,2.926,0,0,1,1.475.3l-.221.59a3.042,3.042,0,0,0-1.254-.3,1.487,1.487,0,0,0-.811.221c-.221.074-.3.369-.3.59a1.094,1.094,0,0,0,.074.516.737.737,0,0,0,.369.3,3.194,3.194,0,0,0,.811.3,2.48,2.48,0,0,1,1.18.664A1.247,1.247,0,0,1,133.267,82.857Z" transform="translate(-35.152 -70.907)"/><path class="a" d="M140.279,78.774v3.541a1.915,1.915,0,0,1-2.139,1.992,2.113,2.113,0,0,1-1.549-.59,2.06,2.06,0,0,1-.59-1.475V78.7h.664v3.615a1.355,1.355,0,0,0,.369,1.107,1.66,1.66,0,0,0,1.107.369,1.3,1.3,0,0,0,1.475-1.475V78.774Z" transform="translate(-36.779 -70.88)"/><path class="a" d="M143.9,84.333V78.8h.664v4.943H147v.59Z" transform="translate(-38.851 -70.907)"/><path class="a" d="M153,84.333V78.8h.664v4.943H156.1v.59Z" transform="translate(-41.238 -70.907)"/><path class="a" d="M162.531,84.333l-.664-1.77h-2.139l-.664,1.77H158.4l2.139-5.533h.516l2.139,5.533Zm-.885-2.361-.664-1.7c-.074-.221-.221-.516-.3-.811a4.537,4.537,0,0,1-.221.811l-.664,1.7Z" transform="translate(-42.654 -70.907)"/><path class="a" d="M168.61,78.8h.664l-1.992,5.533h-.59L164.7,78.8h.664l1.254,3.541c.074.369.3.811.369,1.18a7.249,7.249,0,0,1,.369-1.18Z" transform="translate(-44.307 -70.907)"/><path class="a" d="M176.716,81.477a3.022,3.022,0,0,1-.664,2.066,2.514,2.514,0,0,1-1.844.811,2.29,2.29,0,0,1-1.844-.811,3.447,3.447,0,0,1-.664-2.066,3.022,3.022,0,0,1,.664-2.066,2.5,2.5,0,0,1,3.689,0A3.447,3.447,0,0,1,176.716,81.477Zm-4.426,0a2.731,2.731,0,0,0,.516,1.7,1.96,1.96,0,0,0,2.8,0,3.046,3.046,0,0,0,0-3.393,1.96,1.96,0,0,0-2.8,0A2.731,2.731,0,0,0,172.29,81.477Z" transform="translate(-46.143 -70.854)"/><path class="a" d="M180.964,81.946v2.287H180.3V78.7h1.475a2.084,2.084,0,0,1,1.475.369,1.6,1.6,0,0,1,.516,1.18,1.545,1.545,0,0,1-1.107,1.475l1.475,2.434h-.811l-1.4-2.287A4.207,4.207,0,0,1,180.964,81.946Zm0-.516h.885c.516,0,.811-.074.959-.3a1.547,1.547,0,0,0,.3-.811,1.008,1.008,0,0,0-.3-.811c-.221-.221-.59-.221-1.107-.221h-.811l.074,2.139Z" transform="translate(-48.398 -70.88)"/><path class="a" d="M191.716,81.477a3.022,3.022,0,0,1-.664,2.066,2.514,2.514,0,0,1-1.844.811,2.191,2.191,0,0,1-1.844-.811,3.447,3.447,0,0,1-.664-2.066,3.022,3.022,0,0,1,.664-2.066,2.29,2.29,0,0,1,1.844-.811,2.4,2.4,0,0,1,1.844.811A3.022,3.022,0,0,1,191.716,81.477Zm-4.426,0a2.731,2.731,0,0,0,.516,1.7,1.96,1.96,0,0,0,2.8,0,3.046,3.046,0,0,0,0-3.393,1.96,1.96,0,0,0-2.8,0A2.342,2.342,0,0,0,187.29,81.477Z" transform="translate(-50.077 -70.854)"/></g></g></svg>